<svg width="19" height="19" viewBox="0 0 19 19" fill="none" xmlns="http://www.w3.org/2000/svg">
<path fill-rule="evenodd" clip-rule="evenodd" d="M2.12125 0.707079C1.73062 0.316553 1.09756 0.316553 0.70694 0.707079C0.316437 1.0976 0.316437 1.73077 0.70694 2.12129L8.31631 9.73064L0.754059 17.2929C0.363434 17.6834 0.363434 18.3166 0.754059 18.7071C1.14456 19.0976 1.77774 19.0976 2.16824 18.7071L9.7305 11.1448L16.9704 18.3847C17.3609 18.7753 17.994 18.7753 18.3846 18.3847C18.7751 17.9942 18.7751 17.3611 18.3846 16.9705L11.1447 9.73061L18.4317 2.44362C18.8223 2.0531 18.8223 1.41993 18.4317 1.02941C18.0412 0.638884 17.408 0.638884 17.0175 1.02941L9.7305 8.3164L2.12125 0.707079Z" fill="white"/>
</svg>
