<svg width="26" height="26" viewBox="0 0 26 26" fill="none" xmlns="http://www.w3.org/2000/svg">
<path d="M17.4001 10.3999C16.9001 10.5999 16.6001 11.1999 16.8001 11.6999C17.6001 13.7999 16.6001 16.0999 14.5001 16.8999C12.4001 17.6999 10.1001 16.6999 9.30013 14.5999C8.50013 12.4999 9.50012 10.1999 11.6001 9.39991C12.5001 8.99991 13.5001 8.99991 14.5001 9.39991C15.0001 9.59991 15.6001 9.29991 15.8001 8.79991C16.0001 8.29991 15.7001 7.69991 15.2001 7.49991C12.1001 6.29991 8.60013 7.89991 7.50013 10.9999C6.70013 13.1999 7.20013 15.6999 8.90013 17.3999C11.2001 19.6999 15.0001 19.6999 17.4001 17.3999C19.1001 15.6999 19.6001 13.1999 18.8001 10.9999C18.5001 10.3999 18.0001 10.1999 17.4001 10.3999Z" fill="#4E4E4E"/>
<path d="M20 7C20.5523 7 21 6.55228 21 6C21 5.44772 20.5523 5 20 5C19.4477 5 19 5.44772 19 6C19 6.55228 19.4477 7 20 7Z" fill="#4E4E4E"/>
<path d="M25.0002 5.99995C25.0002 3.29995 22.8002 1.09995 20.1002 0.999951C15.4002 0.599951 10.7002 0.599951 6.0002 0.999951C3.3002 0.999951 1.0002 3.19995 1.0002 5.89995C0.600195 10.6 0.600195 15.3 1.0002 20C1.0002 22.7 3.2002 24.9 5.9002 25C8.3002 25.2 10.6002 25.2999 13.0002 25.2999C15.4002 25.2999 17.7002 25.2 20.0002 25C22.7002 25 24.9002 22.8 24.9002 20.1C25.4002 15.4 25.4002 10.7 25.0002 5.99995ZM23.0002 20C23.0002 21.7 21.7002 23 20.0002 23H19.9002C15.3002 23.4 10.6002 23.4 6.0002 23C4.3002 23 3.0002 21.7 3.0002 20V19.9C2.6002 15.2999 2.6002 10.6 3.0002 5.99995C3.0002 4.29995 4.3002 2.99995 6.0002 2.99995H6.10019C8.40019 2.79995 10.7002 2.69995 13.0002 2.69995C15.3002 2.69995 17.6002 2.79995 20.0002 2.99995C21.7002 2.99995 23.0002 4.29995 23.0002 5.99995V6.09995C23.4002 10.8 23.4002 15.4 23.0002 20Z" fill="#4E4E4E"/>
</svg>
