<svg width="30" height="22" viewBox="0 0 30 22" fill="none" xmlns="http://www.w3.org/2000/svg">
<path d="M28.8998 6.9001C28.8998 3.9001 26.5998 1.4001 23.5998 1.2001C17.7998 0.900098 11.9998 0.900098 6.19981 1.2001C3.39981 1.2001 0.899805 3.9001 0.899805 6.9001C0.599805 9.8001 0.599805 12.7001 0.899805 15.6001C0.899805 18.5001 3.29981 20.9001 6.19981 20.9001C9.09981 21.1001 11.9998 21.1001 14.8998 21.1001C17.7998 21.1001 20.6998 21.0001 23.5998 20.9001C26.4998 20.9001 28.8998 18.6001 28.8998 15.6001C29.3998 12.7001 29.3998 9.8001 28.8998 6.9001ZM26.8998 15.5001V15.6001C26.8998 17.5001 25.3998 19.0001 23.4998 18.9001C17.6998 19.2001 11.9998 19.2001 6.19981 18.9001C4.29981 18.9001 2.8998 17.4001 2.8998 15.5001C2.8998 15.5001 2.8998 15.5001 2.8998 15.4001C2.5998 12.6001 2.5998 9.7001 2.8998 6.9001V6.8001C2.8998 4.9001 4.29981 3.2001 6.29981 3.0001C9.19981 2.9001 11.9998 2.8001 14.8998 2.8001C17.7998 2.8001 20.6998 2.9001 23.4998 3.0001H23.5998C25.2998 3.0001 26.8998 4.8001 26.8998 6.8001V6.9001C27.2998 9.9001 27.2998 12.7001 26.8998 15.5001Z" fill="#4E4E4E"/>
<path d="M19.6996 10.4L12.5996 6.70004C12.0996 6.40004 11.4996 6.60004 11.2996 7.10004C10.9996 7.60004 11.1996 8.20004 11.6996 8.50004L17.0996 11.3L13.0996 13.4V11.3C13.0996 10.7 12.6996 10.3 12.0996 10.3C11.4996 10.3 11.0996 10.7 11.0996 11.3V15C11.0996 15.6 11.4996 16 12.0996 16C12.2996 16 12.3996 16 12.5996 15.9L19.6996 12.2C19.9996 12 20.1996 11.7 20.1996 11.3C20.2996 10.9 20.0996 10.5 19.6996 10.4Z" fill="#4E4E4E"/>
</svg>
