<svg width="26" height="26" viewBox="0 0 26 26" fill="none" xmlns="http://www.w3.org/2000/svg">
<path d="M21 0H5C2.2 0 0 2.2 0 5V21C0 23.8 2.2 26 5 26H13C13.6 26 14 25.6 14 25V17C14 16.4 13.6 16 13 16H12V14H13C13.6 14 14 13.6 14 13V9.5C14 8.1 15.1 7 16.5 7H19V9H18C16.9 9 16 9.9 16 11V13C16 13.6 16.4 14 17 14H18.7L18.2 16H17C16.4 16 16 16.4 16 17V21C16 21.6 16.4 22 17 22C17.6 22 18 21.6 18 21V18H19C19.5 18 19.9 17.7 20 17.2L21 13.2C21.1 12.9 21 12.6 20.8 12.3C20.6 12 20.3 11.9 20 11.9H18V10.9H20C20.6 10.9 21 10.5 21 9.9V6C21 5.4 20.6 5 20 5H16.5C14 5 12 7 12 9.5V12H11C10.4 12 10 12.4 10 13V17C10 17.6 10.4 18 11 18H12V24H5C3.3 24 2 22.7 2 21V5C2 3.3 3.3 2 5 2H21C22.7 2 24 3.3 24 5V21C24 22.7 22.7 24 21 24H17C16.4 24 16 24.4 16 25C16 25.6 16.4 26 17 26H21C23.8 26 26 23.8 26 21V5C26 2.2 23.8 0 21 0Z" fill="#4E4E4E"/>
</svg>
