<svg width="101" height="45" viewBox="0 0 101 45" fill="none" xmlns="http://www.w3.org/2000/svg">
<path fill-rule="evenodd" clip-rule="evenodd" d="M63.0918 0.00805664H100.844V45H63.0918C63.0918 45 68.0927 41.218 71.3663 36.2084H92.0517V26.8997H74.9858C74.9858 26.8997 75.7201 22.4067 74.9858 18.1083H92.0517V8.79963H71.8829C71.8829 8.79963 68.6512 4.0159 63.0918 0.00805664Z" fill="#EF3F3C"/>
<path fill-rule="evenodd" clip-rule="evenodd" d="M22.484 36.2225C19.718 36.2222 17.0166 35.3866 14.7335 33.825C12.4504 32.2635 10.6922 30.0488 9.68908 27.4711H45.1472C45.1472 27.4711 44.9683 22.9269 44.9683 22.4932C44.9761 17.5245 43.3306 12.6945 40.2912 8.76396C40.2912 8.76396 41.2759 8.76396 48.8586 8.76396C52.4759 8.80044 55.9327 10.263 58.4777 12.8338C61.0227 15.4047 62.4504 18.876 62.4504 22.4935C62.4504 26.1111 61.0227 29.5824 58.4777 32.1532C55.9327 34.7241 52.4759 36.1867 48.8586 36.2231H22.484V36.2225ZM48.8586 44.9772C54.8217 44.9772 60.5406 42.6083 64.7571 38.3917C68.9737 34.1752 71.3426 28.4563 71.3426 22.4932C71.3426 16.53 68.9737 10.8111 64.7571 6.59457C60.5406 2.378 54.8217 0.00915527 48.8586 0.00915527H22.484C16.5209 0.00915527 10.802 2.378 6.58541 6.59457C2.36884 10.8111 0 16.53 0 22.4932C0 28.4563 2.36884 34.1752 6.58541 38.3917C10.802 42.6083 16.5209 44.9772 22.484 44.9772H48.8586ZM22.484 8.76334C19.5174 8.76394 16.6308 9.72512 14.2561 11.5031C11.8814 13.281 10.1462 15.7801 9.31022 18.6265H35.6576C34.8217 15.7801 33.0866 13.281 30.7119 11.5031C28.3372 9.72509 25.4505 8.76392 22.484 8.76334Z" fill="black"/>
<path fill-rule="evenodd" clip-rule="evenodd" d="M40.3373 8.85134C36.2126 3.47341 29.8923 0.00810172 22.5732 0.00810172H22.754C44.9224 -0.198861 50.68 3.62809 50.68 3.62809C63.0205 9.88507 62.4722 20.6958 62.4722 20.6958C60.204 9.31676 47.5769 8.79952 47.5769 8.79952L40.8027 8.85134H40.3373ZM22.5732 44.9758L22.806 0.00810172L22.5732 44.9758Z" fill="url(#paint0_linear)"/>
<defs>
<linearGradient id="paint0_linear" x1="39.8719" y1="24.9864" x2="42.5264" y2="-0.00151694" gradientUnits="userSpaceOnUse">
<stop stop-color="#DBD9D8"/>
<stop offset="1" stop-color="#101010"/>
</linearGradient>
</defs>
</svg>
