<svg width="50" height="50" viewBox="0 0 50 50" fill="none" xmlns="http://www.w3.org/2000/svg">
<path d="M12 19C12 18.4477 12.4477 18 13 18H36C36.5523 18 37 18.4477 37 19C37 19.5523 36.5523 20 36 20H13C12.4477 20 12 19.5523 12 19Z" fill="#4E4E4E"/>
<path d="M12 31C12 30.4477 12.4477 30 13 30H36C36.5523 30 37 30.4477 37 31C37 31.5523 36.5523 32 36 32H13C12.4477 32 12 31.5523 12 31Z" fill="#4E4E4E"/>
<path d="M12 25C12 24.4477 12.4477 24 13 24H36C36.5523 24 37 24.4477 37 25C37 25.5523 36.5523 26 36 26H13C12.4477 26 12 25.5523 12 25Z" fill="#4E4E4E"/>
</svg>
