<svg width="22" height="22" viewBox="0 0 22 22" fill="none" xmlns="http://www.w3.org/2000/svg">
<path d="M22.0581 20.5695L15.6673 14.1787C16.8794 12.6822 17.6091 10.7797 17.6091 8.70836C17.6091 3.9066 13.7025 0 8.90071 0C4.09894 0 0.192383 3.9066 0.192383 8.70836C0.192383 13.5101 4.09898 17.4167 8.90075 17.4167C10.9721 17.4167 12.8746 16.687 14.3711 15.4749L20.7619 21.8658C20.941 22.0447 21.2311 22.0447 21.4101 21.8658L22.0581 21.2177C22.2371 21.0387 22.2371 20.7485 22.0581 20.5695ZM8.90075 15.5834C5.10965 15.5834 2.02573 12.4995 2.02573 8.70836C2.02573 4.91727 5.10965 1.83335 8.90075 1.83335C12.6918 1.83335 15.7758 4.91727 15.7758 8.70836C15.7758 12.4995 12.6918 15.5834 8.90075 15.5834Z" fill="#4E4E4E"/>
</svg>
