<svg width="26" height="26" viewBox="0 0 26 26" fill="none" xmlns="http://www.w3.org/2000/svg">
<path d="M13 0C5.8 0 0 5.8 0 13C0 18.1 2.9 22.7 7.6 24.8C8.1 25.1 8.7 24.9 9 24.4C9.3 23.9 9.1 23.3 8.6 23C8.6 23 8.5 23 8.5 22.9C2.9 20.5 0.5 13.9 3 8.4C5.5 2.9 12 0.5 17.6 3C23.2 5.5 25.5 12.1 23 17.6C21.2 21.5 17.3 24 13 24C12.4 24 12 24.4 12 25C12 25.6 12.4 26 13 26C20.2 26 26 20.2 26 13C26 5.8 20.2 0 13 0Z" fill="#4E4E4E"/>
<path d="M20.1 11.6C20.2 11.7 20.4 11.7 20.6 11.7C21.2 11.7 21.6 11.2 21.6 10.7C21.6 10.3 21.4 9.99996 21.1 9.79996C17.1 7.49996 11.9 6.99996 5.5 8.09996C5 8.19996 4.6 8.69996 4.7 9.29996C4.8 9.79996 5.3 10.2 5.9 10.1C11.7 8.99996 16.5 9.49996 20.1 11.6Z" fill="#4E4E4E"/>
<path d="M6.7 14.0001C11.6 12.9001 15.6 13.4001 18.6 15.5001C18.8 15.6001 19 15.7001 19.2 15.7001C19.5 15.7001 19.8 15.5001 20 15.3001C20.3 14.8001 20.2 14.2001 19.8 13.9001C16.3 11.5001 11.8 10.8001 6.4 12.0001C5.8 12.1001 5.5 12.7001 5.6 13.2001C5.6 13.8001 6.1 14.2001 6.7 14.0001Z" fill="#4E4E4E"/>
<path d="M7.5002 17.8001C11.3002 17.0001 14.4002 17.4001 16.7002 18.9001C16.9002 19.0001 17.0002 19.1001 17.2002 19.1001C17.8002 19.1001 18.2002 18.6001 18.2002 18.1001C18.2002 17.8001 18.0002 17.4001 17.7002 17.3001C15.0002 15.4001 11.5002 15.0001 7.1002 15.8001C6.5002 15.9001 6.2002 16.4001 6.3002 17.0001C6.4002 17.6001 7.0002 17.9001 7.5002 17.8001Z" fill="#4E4E4E"/>
</svg>
