<svg width="27" height="24" viewBox="0 0 27 24" fill="none" xmlns="http://www.w3.org/2000/svg">
<path d="M25.7 4.3C25.6 4.2 25.6 4.2 25.5 4.1C25.7 3.7 25.9 3.2 26 2.7C26.1 2.3 25.9 1.9 25.6 1.7C25.3 1.5 24.8 1.5 24.5 1.7C23.8 2.2 23 2.5 22.2 2.6C20.3 0.799999 17.5 0.399999 15.1 1.6C12.7 2.9 11.4 5.6 12 8.3C12.1 8.9 12.6 9.2 13.2 9.1C13.8 9 14.1 8.5 14 8C13.6 6.2 14.4 4.4 16 3.5C17.7 2.6 19.8 3 21.1 4.5C21.3 4.7 21.7 4.8 22 4.8H22.2C21.8 5.2 21.8 5.8 22.2 6.2C22.3 6.3 22.4 6.4 22.5 6.4C22.2 6.6 22.1 6.9 22.1 7.3C22.4 11.6 20.6 15.8 17.2 18.5C13.7 21.5 8.9 22.4 4.5 20.8C6.2 20.5 7.8 19.8 9 18.6C9.3 18.3 9.3 17.9 9.2 17.5C9 17.1 8.7 16.9 8.3 16.9C7.1 16.9 6.1 16.4 5.3 15.5C5.6 15.4 6 15.3 6.3 15.1C6.7 14.9 6.9 14.5 6.9 14.1C6.8 13.7 6.5 13.4 6.1 13.3C4.8 13 3.7 12.1 3.1 10.8C3.3 10.8 3.6 10.9 3.8 10.9C4.2 10.9 4.6 10.7 4.8 10.3C4.9 9.9 4.8 9.4 4.5 9.2C3 7.7 2.6 6 2.8 4.9C4.7 6.9 7.1 8.3 9.8 8.9C10.4 9 10.9 8.6 11 8.1C11.1 7.5 10.7 7 10.2 6.9C7.5 6.3 5.1 4.7 3.4 2.5C3.2 2.3 2.9 2.1 2.6 2.1C2.3 2.1 2 2.2 1.8 2.4C0.500003 4.1 0.4 6.5 1.5 8.4H1.4C1.1 8.6 0.900002 8.9 0.900002 9.2C0.900002 10.9 1.6 12.5 2.9 13.7C2.7 14 2.6 14.4 2.7 14.7C3.3 16.2 4.4 17.5 5.9 18.3C4.3 18.9 2.7 19.2 1 19.2C0.4 19.2 0 19.7 0 20.2C0 20.5 0.2 20.9 0.5 21C3.1 22.6 6 23.4 9 23.5C12.5 23.5 15.9 22.2 18.6 19.9C22.4 16.9 24.5 12.3 24.3 7.5C25.1 6.9 25.6 6.1 25.9 5.3C26 5 26 4.6 25.7 4.3Z" fill="#4E4E4E"/>
</svg>
